<svg id="visual" viewBox="0 0 1900 120" width="1900" height="120" xmlns="http://www.w3.org/2000/svg" xmlns:xlink="http://www.w3.org/1999/xlink" version="1.1"><rect x="0" y="0" width="1900" height="120" fill="#ffffff"></rect><path d="M0 35L12.7 39.5C25.3 44 50.7 53 76 57C101.3 61 126.7 60 152 62.8C177.3 65.7 202.7 72.3 228 71.5C253.3 70.7 278.7 62.3 304 60.3C329.3 58.3 354.7 62.7 380 64.5C405.3 66.3 430.7 65.7 456 66.3C481.3 67 506.7 69 532 66.3C557.3 63.7 582.7 56.3 608 50C633.3 43.7 658.7 38.3 684 43.5C709.3 48.7 734.7 64.3 760 64.8C785.3 65.3 810.7 50.7 836 47C861.3 43.3 886.7 50.7 912 52.7C937.3 54.7 962.7 51.3 988 53.2C1013.3 55 1038.7 62 1064 67.7C1089.3 73.3 1114.7 77.7 1140 76.3C1165.3 75 1190.7 68 1216 62.8C1241.3 57.7 1266.7 54.3 1292 54.7C1317.3 55 1342.7 59 1368 62.2C1393.3 65.3 1418.7 67.7 1444 68.7C1469.3 69.7 1494.7 69.3 1520 66.5C1545.3 63.7 1570.7 58.3 1596 61.2C1621.3 64 1646.7 75 1672 79.7C1697.3 84.3 1722.7 82.7 1748 75.8C1773.3 69 1798.7 57 1824 49.3C1849.3 41.7 1874.7 38.3 1887.3 36.7L1900 35L1900 121L1887.3 121C1874.7 121 1849.3 121 1824 121C1798.7 121 1773.3 121 1748 121C1722.7 121 1697.3 121 1672 121C1646.7 121 1621.3 121 1596 121C1570.7 121 1545.3 121 1520 121C1494.7 121 1469.3 121 1444 121C1418.7 121 1393.3 121 1368 121C1342.7 121 1317.3 121 1292 121C1266.7 121 1241.3 121 1216 121C1190.7 121 1165.3 121 1140 121C1114.7 121 1089.3 121 1064 121C1038.7 121 1013.3 121 988 121C962.7 121 937.3 121 912 121C886.7 121 861.3 121 836 121C810.7 121 785.3 121 760 121C734.7 121 709.3 121 684 121C658.7 121 633.3 121 608 121C582.7 121 557.3 121 532 121C506.7 121 481.3 121 456 121C430.7 121 405.3 121 380 121C354.7 121 329.3 121 304 121C278.7 121 253.3 121 228 121C202.7 121 177.3 121 152 121C126.7 121 101.3 121 76 121C50.7 121 25.3 121 12.7 121L0 121Z" fill="#081951" stroke-linecap="round" stroke-linejoin="miter"></path></svg>